<?xml version="1.0" standalone="no"?>
<!DOCTYPE svg PUBLIC "-//W3C//DTD SVG 20010904//EN"
 "http://www.w3.org/TR/2001/REC-SVG-20010904/DTD/svg10.dtd">
<svg version="1.0" xmlns="http://www.w3.org/2000/svg"
 width="700.000000pt" height="700.000000pt" viewBox="0 0 700.000000 700.000000"
 preserveAspectRatio="xMidYMid meet">
<metadata>
Created by potrace 1.14, written by Peter Selinger 2001-2017
</metadata>
<g transform="translate(0.000000,700.000000) scale(0.100000,-0.100000)"
fill="#000000" stroke="none">
<path d="M6315 6947 c-58 -133 -189 -327 -302 -450 -184 -199 -462 -361 -708
-412 -75 -16 -129 -26 -170 -31 -87 -11 -296 -10 -405 2 -106 12 -123 15 -214
34 -28 6 -61 12 -73 14 -168 33 -551 175 -783 291 l-90 45 -292 -116 c-161
-63 -462 -182 -668 -264 -206 -81 -440 -174 -520 -205 -80 -31 -156 -61 -170
-67 -14 -6 -34 -14 -45 -19 -11 -5 -141 -56 -290 -114 -464 -182 -690 -272
-730 -289 -16 -8 -87 -36 -158 -62 -70 -27 -127 -51 -127 -54 0 -3 62 -36 138
-72 75 -37 268 -130 427 -208 421 -206 672 -329 913 -446 210 -103 446 -218
862 -422 118 -57 315 -153 438 -213 l223 -109 97 41 c458 195 923 490 1282
814 84 76 308 302 375 379 33 38 65 74 70 80 68 72 339 447 391 541 7 11 44
76 83 143 63 109 211 400 211 416 0 3 12 31 26 62 89 194 260 722 240 741 -3
3 -17 -19 -31 -50z"/>
<path d="M420 3046 l0 -1574 93 -50 c50 -27 146 -78 212 -112 66 -34 152 -79
190 -100 39 -20 133 -70 210 -110 131 -68 200 -104 415 -218 47 -24 132 -69
190 -100 58 -30 146 -76 195 -102 50 -26 144 -76 210 -110 66 -34 156 -82 200
-105 126 -67 260 -137 390 -205 145 -75 273 -143 400 -211 l95 -50 0 1610 0
1611 -1400 700 -1400 700 0 -1574z"/>
<path d="M6435 4545 c-77 -39 -248 -127 -380 -194 -132 -68 -346 -178 -475
-244 -129 -66 -298 -152 -375 -192 -77 -40 -223 -115 -325 -167 -102 -52 -306
-157 -455 -234 -148 -76 -337 -172 -420 -215 l-150 -76 -3 -1612 -2 -1611 77
41 c43 23 184 99 313 169 129 70 276 149 325 175 50 26 113 60 140 75 73 41
149 81 250 135 50 27 167 89 260 140 94 51 211 113 260 140 50 26 117 62 150
80 74 40 412 223 515 278 78 41 145 78 265 142 39 21 92 50 119 64 26 14 50
30 52 35 2 6 3 716 2 1577 l-3 1566 -140 -72z"/>
</g>
</svg>
